<svg id="Layer_1" data-name="Layer 1" xmlns="http://www.w3.org/2000/svg" viewBox="0 0 24 24"><title>tp_graph_24</title><circle cx="13.5" cy="13.5" r="4.5" style="fill:#fff"/><path d="M13.5,9.5a4,4,0,1,1-4,4,4,4,0,0,1,4-4m0-1a5,5,0,1,0,5,5,5,5,0,0,0-5-5Z" style="fill:#231f20"/><path d="M16.75,5a2.53,2.53,0,1,0-1.24-.34L13.78,9.33l.94.34L16.46,5A2.85,2.85,0,0,0,16.75,5Z" style="fill:#231f20"/><path d="M7,3.5A3.5,3.5,0,1,0,3.5,7a3.46,3.46,0,0,0,2-.67l4.87,4.6.68-.73L6.26,5.64A3.49,3.49,0,0,0,7,3.5Z" style="fill:#231f20"/><path d="M21,18a3,3,0,0,0-1.62.48L16.79,15.9l-.71.7,2.56,2.56A3,3,0,1,0,21,18Z" style="fill:#231f20"/><path d="M5,13.85l4.27.21,0-1L4.9,12.85a2.5,2.5,0,1,0,.06,1Z" style="fill:#231f20"/><path d="M9.43,16.18,5.52,19.52A2.54,2.54,0,0,0,4,19a2.53,2.53,0,1,0,2.17,1.28l3.9-3.34Z" style="fill:#231f20"/><path d="M17.71,10.8l.45.9,1.9-1a2.25,2.25,0,1,0-.56-1.48,2.35,2.35,0,0,0,.09.6Z" style="fill:#231f20"/></svg>